<svg width="24" height="25" viewBox="0 0 24 25" fill="none" xmlns="http://www.w3.org/2000/svg">
<path d="M2.77 10.6C2.34 10.6 2 10.26 2 9.82998V7.51998C2 4.80998 4.21 2.59998 6.92 2.59998H9.23C9.66 2.59998 10 2.93998 10 3.36998C10 3.79998 9.66 4.13998 9.23 4.13998H6.92C5.05 4.13998 3.54 5.65998 3.54 7.51998V9.82998C3.54 10.26 3.19 10.6 2.77 10.6Z" fill="white"/>
<path d="M21.23 10.6C20.81 10.6 20.46 10.26 20.46 9.82998V7.51998C20.46 5.64998 18.94 4.13998 17.08 4.13998H14.77C14.34 4.13998 14 3.78998 14 3.36998C14 2.94998 14.34 2.59998 14.77 2.59998H17.08C19.79 2.59998 22 4.80998 22 7.51998V9.82998C22 10.26 21.66 10.6 21.23 10.6Z" fill="white"/>
<path d="M17.0799 22.6H15.6899C15.2699 22.6 14.9199 22.26 14.9199 21.83C14.9199 21.41 15.2599 21.06 15.6899 21.06H17.0799C18.9499 21.06 20.4599 19.54 20.4599 17.68V16.3C20.4599 15.88 20.7999 15.53 21.2299 15.53C21.6499 15.53 21.9999 15.87 21.9999 16.3V17.68C21.9999 20.39 19.7899 22.6 17.0799 22.6Z" fill="white"/>
<path d="M9.23 22.6H6.92C4.21 22.6 2 20.39 2 17.68V15.37C2 14.94 2.34 14.6 2.77 14.6C3.2 14.6 3.54 14.94 3.54 15.37V17.68C3.54 19.55 5.06 21.06 6.92 21.06H9.23C9.65 21.06 10 21.4 10 21.83C10 22.26 9.66 22.6 9.23 22.6Z" fill="white"/>
<path d="M18.46 11.83H17.1H6.90002H5.54002C5.11002 11.83 4.77002 12.18 4.77002 12.6C4.77002 13.02 5.11002 13.37 5.54002 13.37H6.90002H17.1H18.46C18.89 13.37 19.23 13.02 19.23 12.6C19.23 12.18 18.89 11.83 18.46 11.83Z" fill="white"/>
<path d="M6.8999 14.54V14.87C6.8999 16.53 8.2399 17.87 9.8999 17.87H14.0999C15.7599 17.87 17.0999 16.53 17.0999 14.87V14.54C17.0999 14.42 17.0099 14.33 16.8899 14.33H7.1099C6.9899 14.33 6.8999 14.42 6.8999 14.54Z" fill="white"/>
<path d="M6.8999 10.66V10.33C6.8999 8.66996 8.2399 7.32996 9.8999 7.32996H14.0999C15.7599 7.32996 17.0999 8.66996 17.0999 10.33V10.66C17.0999 10.78 17.0099 10.87 16.8899 10.87H7.1099C6.9899 10.87 6.8999 10.78 6.8999 10.66Z" fill="white"/>
</svg>
